<svg width="66" height="73" viewBox="0 0 66 73" fill="none" xmlns="http://www.w3.org/2000/svg">
<path d="M1.21875 28.7188C1.40625 27.7812 1.53125 27.0312 1.59375 26.4688C1.65625 25.8438 1.4375 25.1875 0.9375 24.5C1.1875 23.5 1.375 22.7188 1.5 22.1562C1.6875 21.5938 1.71875 20.8125 1.59375 19.8125C2.15625 18.1875 3 16.8125 4.125 15.6875C5.3125 14.5625 6.59375 13.625 7.96875 12.875C9.34375 12.0625 10.7812 11.4062 12.2812 10.9062C13.7812 10.3438 15.1875 9.875 16.5 9.5C16.5 9.25 16.375 9.125 16.125 9.125C15.875 9.125 15.8125 8.96875 15.9375 8.65625C19.3125 8.03125 22.6875 7.125 26.0625 5.9375C29.5 4.75 33 3.6875 36.5625 2.75C40.125 1.8125 43.7812 1.25 47.5312 1.0625C51.2812 0.8125 55.2188 1.28125 59.3438 2.46875C59.5938 3.21875 59.9375 3.9375 60.375 4.625C60.8125 5.3125 61.25 6 61.6875 6.6875C62.1875 7.3125 62.625 7.9375 63 8.5625C63.375 9.1875 63.5938 9.84375 63.6562 10.5312C64.4062 11.2188 65 11.9688 65.4375 12.7812C65.9375 13.5312 66.0312 14.5625 65.7188 15.875C65.0312 16.375 64.3125 16.875 63.5625 17.375C62.8125 17.875 62.0312 18.3438 61.2188 18.7812C58.4062 18.0938 55.5938 17.8438 52.7812 18.0312C49.9688 18.2188 47.4375 18.4375 45.1875 18.6875C44.5 17.9375 43.6875 17.5938 42.75 17.6562C41.8125 17.6562 40.8125 17.8125 39.75 18.125C38.75 18.375 37.75 18.6562 36.75 18.9688C35.75 19.2188 34.8125 19.2812 33.9375 19.1562C33.25 19.7812 32.3438 20.2188 31.2188 20.4688C30.0938 20.6562 28.9062 20.8125 27.6562 20.9375C27.5938 21.25 27.6562 21.4688 27.8438 21.5938C28.0312 21.7188 28.0625 21.9688 27.9375 22.3438C28.375 22.9062 28.9688 23.3125 29.7188 23.5625C30.4688 23.75 31.2188 23.9375 31.9688 24.125C32.7812 24.3125 33.5 24.5938 34.125 24.9688C34.75 25.2812 35.1562 25.8125 35.3438 26.5625C36.4688 26.625 37.4375 26.9375 38.25 27.5C39.0625 28 39.75 28.625 40.3125 29.375C40.875 30.125 41.2812 30.9375 41.5312 31.8125C41.7812 32.625 41.875 33.375 41.8125 34.0625C42.0625 34.6875 42.3125 34.9375 42.5625 34.8125C42.875 34.6875 43.2188 34.8438 43.5938 35.2812C43.8438 36.2188 44.4062 37.2188 45.2812 38.2812C46.2188 39.2812 46.9375 40.375 47.4375 41.5625C47.5625 43.4375 47.6562 45.125 47.7188 46.625C47.8438 48.125 47.5938 49.5938 46.9688 51.0312C45.9062 53.7812 44.375 56.25 42.375 58.4375C40.375 60.625 38.0938 62.5625 35.5312 64.25C33.0312 65.875 30.375 67.3125 27.5625 68.5625C24.75 69.75 21.9688 70.75 19.2188 71.5625C18.9688 71.5 18.6562 71.5 18.2812 71.5625C17.9688 71.625 17.9062 71.4375 18.0938 71C17.5312 71.5 16.875 71.8125 16.125 71.9375C15.4375 72.0625 14.6562 72.0938 13.7812 72.0312C12.9688 72.0312 12.125 72 11.25 71.9375C10.4375 71.875 9.625 71.9062 8.8125 72.0312C8.3125 71.5312 7.84375 71.0312 7.40625 70.5312C7.03125 70.0312 6.71875 69.4375 6.46875 68.75C6.15625 68.6875 6 68.5 6 68.1875C6.0625 67.8125 5.9375 67.625 5.625 67.625C5.625 67.375 5.65625 67.1875 5.71875 67.0625C5.78125 66.9375 5.84375 66.8125 5.90625 66.6875C6.15625 66.5 6.25 66.375 6.1875 66.3125C6.1875 66.1875 6.09375 66.0938 5.90625 66.0312C5.78125 65.9062 5.625 65.7812 5.4375 65.6562C5.3125 65.5312 5.28125 65.375 5.34375 65.1875C5.65625 64.625 5.75 63.9688 5.625 63.2188C5.5625 62.4062 5.5 61.5938 5.4375 60.7812C5.375 59.9688 5.4375 59.2188 5.625 58.5312C5.8125 57.7812 6.34375 57.1562 7.21875 56.6562C9.78125 56.9062 12.1875 56.7812 14.4375 56.2812C16.75 55.7812 18.9062 55.0938 20.9062 54.2188C22.9688 53.3438 24.9062 52.4062 26.7188 51.4062C28.5938 50.3438 30.4062 49.375 32.1562 48.5C32.3438 47.875 32.625 47.3438 33 46.9062C33.4375 46.4688 33.875 46.0625 34.3125 45.6875C34.75 45.25 35.1562 44.8125 35.5312 44.375C35.9062 43.875 36.1875 43.2812 36.375 42.5938C36.4375 42.3438 36.4375 42.1562 36.375 42.0312C36.3125 41.9062 36.2188 41.8125 36.0938 41.75C35.9688 41.625 35.8438 41.5 35.7188 41.375C35.5938 41.25 35.5312 41.0625 35.5312 40.8125C35.3438 40.75 35.1562 40.6875 34.9688 40.625C34.8438 40.5625 34.7188 40.5312 34.5938 40.5312C32.9688 39.7188 31.25 39.0312 29.4375 38.4688C27.625 37.9062 26.0938 37.2812 24.8438 36.5938C24.0938 37.0938 23.3438 37.2188 22.5938 36.9688C21.8438 36.7188 20.9375 36.4688 19.875 36.2188C17.25 36.0938 14.75 35.8438 12.375 35.4688C10.0625 35.0938 7.8125 34.4375 5.625 33.5C5.5 33.125 5.34375 32.8125 5.15625 32.5625C4.96875 32.25 4.53125 32.1562 3.84375 32.2812C3.40625 31.6562 2.9375 31.0938 2.4375 30.5938C2 30.0312 1.59375 29.4062 1.21875 28.7188Z" fill="#2DBECD"/>
</svg>
