<svg enable-background="new 0 0 800 300" height="60" viewBox="0 0 120 60" width="120" xmlns="http://www.w3.org/2000/svg"><g fill="#009688" transform="matrix(.34806114725 0 0 .34806114725 24.52035798256 22.66581250838)"><path d="m40.819 5.687c-.991-.991-1.487-2.206-1.487-3.645 0-1.438.496-2.653 1.487-3.645.991-.991 2.206-1.487 3.645-1.487 1.438 0 2.653.496 3.645 1.487.991.991 1.487 2.207 1.487 3.645 0 1.439-.496 2.653-1.487 3.645-.991.991-2.207 1.487-3.645 1.487-1.439.001-2.654-.495-3.645-1.487zm8.018 35.368h-8.747v-31.373h8.747z"/><path d="m54.785.293h16.503v40.762h-8.748v-33.006h-7.756v-7.756z"/><path d="m85.079 2.568c2.702-2.138 6.074-3.208 10.118-3.208 4.043 0 7.406 1.07 10.088 3.207 2.683 2.139 4.024 4.773 4.024 7.902 0 3.13-1.205 5.822-3.615 8.077 3.382 2.605 5.073 6.027 5.073 10.264 0 3.577-1.439 6.589-4.315 9.039-2.878 2.449-6.629 3.674-11.255 3.674-4.627 0-8.378-1.225-11.255-3.674s-4.315-5.462-4.315-9.039c0-4.237 1.691-7.659 5.073-10.264-2.449-2.293-3.674-4.995-3.674-8.106.001-3.11 1.351-5.734 4.053-7.872zm5.686 30.002c1.36.914 2.837 1.371 4.432 1.371 1.594 0 3.071-.457 4.432-1.371 1.36-.913 2.041-2.245 2.041-3.994s-.662-3.091-1.983-4.024c-1.322-.933-2.819-1.4-4.49-1.4-1.672 0-3.169.467-4.49 1.4-1.322.933-1.983 2.274-1.983 4.024s.68 3.081 2.041 3.994zm.554-17.815c1.108.933 2.4 1.399 3.878 1.399 1.477 0 2.77-.467 3.878-1.399 1.108-.933 1.662-2.089 1.662-3.47 0-1.379-.545-2.537-1.633-3.47-1.089-.933-2.391-1.4-3.907-1.4s-2.819.467-3.907 1.4c-1.089.933-1.633 2.09-1.633 3.47 0 1.381.554 2.537 1.662 3.47z"/><path d="m126.803 23.561v17.494h-8.747v-31.373h8.747v3.499c2.643-2.683 5.617-4.024 8.922-4.024 3.304 0 6.074 1.166 8.31 3.499 2.235 2.333 3.353 5.443 3.353 9.331v19.069h-8.747v-17.728c0-4.82-1.769-7.231-5.307-7.231-1.749 0-3.276.632-4.578 1.895-1.302 1.264-1.953 3.12-1.953 5.569z"/><path d="m182.493 36.507c-3.538 3.344-7.688 5.015-12.45 5.015-4.763 0-8.699-1.467-11.809-4.403-3.111-2.935-4.665-6.871-4.665-11.808s1.583-8.864 4.753-11.78c3.168-2.916 6.91-4.373 11.226-4.373 4.315 0 7.979 1.303 10.992 3.907 3.012 2.605 4.519 6.181 4.519 10.73v4.665h-22.859c.272 1.711 1.166 3.111 2.683 4.199 1.516 1.089 3.227 1.633 5.132 1.633 3.071 0 5.598-1.03 7.581-3.091zm-8.397-18.603c-1.206-1.011-2.674-1.516-4.403-1.516-1.73 0-3.315.525-4.753 1.575-1.439 1.05-2.274 2.469-2.508 4.257h13.762c-.194-1.866-.893-3.304-2.098-4.316z"/><path d="m198.121 9.682 5.365 8.397 5.54-8.397h10.263l-10.788 15.336 11.196 16.037h-10.438l-6.123-8.631-5.948 8.631h-10.088l10.963-15.978-10.38-15.395z"/><path d="m235.034 15.98v14.054c0 1.205.311 2.149.933 2.828.621.681 1.36 1.021 2.216 1.021 1.633 0 3.012-.738 4.14-2.216l3.265 6.123c-2.721 2.488-5.589 3.732-8.601 3.732-3.013 0-5.56-.991-7.639-2.974-2.08-1.983-3.12-4.685-3.12-8.106v-14.462h-3.674v-6.298h3.674v-9.389h8.805v9.389h7.581v6.298z"/></g><g transform="matrix(.20164793697 0 0 .20164793697 5.08532324392 8.57097496)"><path d="m88.822 51.582v25.966l29.179 74.943s8.908 18.303-16.57 22.763h-58.123s-23.747-2.478-18.054-21.281l30.664-76.424v-25.967z" fill="#009688"/><path d="m89.438 48.563h-35.003c-2.835 0-5.141-2.522-5.141-5.638 0-3.118 2.305-5.64 5.141-5.64h35.003c2.848 0 5.15 2.522 5.15 5.64 0 3.116-2.303 5.638-5.15 5.638z" fill="#004d40"/><path d="m80.204 93.979c3.756 0 6.819 3.67 6.819 8.215 0 4.525-3.065 8.204-6.819 8.204-3.765 0-6.819-3.679-6.819-8.204 0-4.547 3.054-8.215 6.819-8.215z" fill="#fff"/><ellipse cx="59.271" cy="108.362" fill="#fff" rx="5.748" ry="6.928"/><path d="m91.417 75.827v-12.35s15.661-3.453 23.488 14.763c0-.001-12.198 8.887-23.488-2.413z" fill="#004d40"/><path d="m53.059 75.827v-12.35s-15.663-3.453-23.486 14.763c0-.001 12.186 8.887 23.486-2.413z" fill="#004d40"/><path d="m100.833 126.935c-25.467-7.9-46.878-3.659-57.343-.453l-10.553 25.401c-4.751 15.164 15.087 17.157 15.087 17.157h48.545c21.279-3.595 13.842-18.347 13.842-18.347z" fill="#fff"/><g fill="#004d40"><path d="m64.131 136.373c0 2.739-3.681 4.967-8.215 4.967s-8.204-2.229-8.204-4.967c0-2.75 3.67-4.97 8.204-4.97 4.536.002 8.215 2.22 8.215 4.97z"/><path d="m93.345 136.373c0 2.739-3.681 4.967-8.204 4.967-4.547 0-8.215-2.229-8.215-4.967 0-2.75 3.668-4.97 8.215-4.97 4.525.002 8.204 2.22 8.204 4.97z"/></g></g></svg>