<svg width="1165" height="512" viewBox="0 0 1165 512" fill="none" xmlns="http://www.w3.org/2000/svg">
<path d="M256 496C388.548 496 496 388.548 496 256C496 123.452 388.548 16 256 16C123.452 16 16 123.452 16 256C16 388.548 123.452 496 256 496Z" fill="#382B73"/>
<path d="M256 461C369.218 461 461 369.218 461 256C461 142.782 369.218 51 256 51C142.782 51 51 142.782 51 256C51 369.218 142.782 461 256 461Z" fill="#473080"/>
<path d="M222.428 149.032C208.588 149.032 196.642 157.882 191.018 170.698C189.82 173.426 187.242 175.04 184.486 174.814C180.63 174.496 176.596 174.88 172.446 176.186C159.326 180.316 149.364 192.572 147.434 207.386C146.632 213.53 147.194 219.42 148.81 224.788C149.95 228.574 148.326 232.774 144.91 234.14C131.546 239.478 122 253.502 122 270C122 286.498 131.546 300.522 144.908 305.862C148.324 307.228 149.948 311.428 148.808 315.214C147.192 320.582 146.632 326.472 147.432 332.616C149.364 347.43 159.324 359.686 172.444 363.816C176.592 365.122 180.626 365.504 184.484 365.188C187.238 364.962 189.818 366.574 191.016 369.304C196.64 382.12 208.586 390.97 222.426 390.97C241.676 390.97 257.28 373.862 257.28 352.758C257.28 352.5 257.25 352.25 257.246 351.992C257.26 351.584 257.28 351.18 257.28 350.768V189.234C257.28 188.822 257.258 188.418 257.246 188.01C257.25 187.752 257.28 187.502 257.28 187.244C257.28 166.14 241.676 149.032 222.428 149.032V149.032Z" fill="#382B73"/>
<path d="M395.098 219.382C395.098 213.402 390.25 208.554 384.27 208.554H361.458V230.212H384.27C390.25 230.21 395.098 225.362 395.098 219.382V219.382Z" fill="#382B73"/>
<path d="M384.27 259.172H361.458V280.83H384.27C390.25 280.83 395.098 275.982 395.098 270.002C395.098 264.022 390.25 259.172 384.27 259.172V259.172Z" fill="#382B73"/>
<path d="M384.27 309.79H361.458V331.446H384.27C390.25 331.446 395.098 326.598 395.098 320.618C395.098 314.638 390.25 309.79 384.27 309.79V309.79Z" fill="#382B73"/>
<path d="M335.584 159.866C335.584 153.886 330.736 149.038 324.756 149.038C318.776 149.038 313.928 153.886 313.928 159.866V182.68H335.586V159.866H335.584Z" fill="#382B73"/>
<path d="M313.926 380.134C313.926 386.114 318.774 390.962 324.754 390.962C330.734 390.962 335.582 386.114 335.582 380.134V357.322H313.924V380.134H313.926Z" fill="#382B73"/>
<path d="M344.852 182.68H284.966V159.862C284.966 156.878 283.75 154.182 281.794 152.206C280.4 150.812 278.628 149.794 276.64 149.324C275.368 149.024 274.136 149.964 274.136 151.272V388.698C274.136 390.014 275.384 390.964 276.658 390.64C278.58 390.152 280.288 389.15 281.64 387.798C283.596 385.822 284.812 383.124 284.812 380.142V357.32H344.85C354.026 357.32 361.456 349.892 361.456 340.714V199.284C361.458 190.108 354.028 182.68 344.852 182.68Z" fill="#382B73"/>
<path d="M257.28 173.244C257.28 152.14 241.676 135.032 222.426 135.032C208.586 135.032 196.64 143.882 191.016 156.698C189.818 159.426 187.24 161.04 184.484 160.814C180.628 160.496 176.594 160.88 172.444 162.186C159.324 166.316 149.362 178.572 147.432 193.386C146.63 199.53 147.192 205.42 148.808 210.788C149.948 214.574 148.324 218.774 144.908 220.14C131.546 225.478 122 239.502 122 256C122 272.498 131.546 286.522 144.908 291.862C148.324 293.228 149.948 297.428 148.808 301.214C147.192 306.582 146.632 312.472 147.432 318.616C149.364 333.43 159.324 345.686 172.444 349.816C176.592 351.122 180.626 351.504 184.484 351.188C187.238 350.962 189.818 352.574 191.016 355.304C196.64 368.12 208.586 376.97 222.426 376.97C241.676 376.97 257.28 359.862 257.28 338.758C257.28 338.5 257.25 338.25 257.246 337.992C257.26 337.584 257.28 337.18 257.28 336.768V175.234C257.28 174.822 257.258 174.418 257.246 174.01C257.25 173.752 257.28 173.502 257.28 173.244V173.244Z" fill="#EF5A9D"/>
<path d="M257.28 173.244C257.28 152.14 241.676 135.032 222.426 135.032C220.176 135.032 217.984 135.288 215.852 135.736C231.948 139.116 244.118 154.612 244.118 173.246C244.118 173.504 244.088 173.754 244.082 174.012C244.096 174.42 244.118 174.824 244.118 175.236V336.768C244.118 337.18 244.096 337.586 244.082 337.992C244.086 338.25 244.118 338.5 244.118 338.758C244.118 357.39 231.948 372.888 215.852 376.268C217.982 376.714 220.176 376.972 222.426 376.972C241.676 376.972 257.28 359.864 257.28 338.76C257.28 338.502 257.25 338.252 257.246 337.994C257.26 337.586 257.28 337.182 257.28 336.77V175.234C257.28 174.822 257.258 174.418 257.246 174.01C257.25 173.752 257.28 173.502 257.28 173.244Z" fill="#E43D91"/>
<path d="M147.584 306.65C146.984 310.472 146.894 314.484 147.432 318.616C147.468 318.892 147.526 319.16 147.568 319.434C147.86 317.54 148.27 315.69 148.808 313.902C149.582 311.328 149.058 308.586 147.584 306.65V306.65Z" fill="#F06EA9"/>
<path d="M257.28 173.244C257.28 152.14 241.676 135.032 222.426 135.032C208.586 135.032 196.638 143.882 191.016 156.698C189.818 159.426 187.24 161.04 184.484 160.814C180.628 160.496 176.594 160.88 172.444 162.186C159.324 166.316 149.362 178.572 147.432 193.388C146.898 197.486 146.982 201.466 147.568 205.258C149.756 190.814 159.57 178.928 172.446 174.874C176.594 173.568 180.628 173.186 184.486 173.502C187.24 173.728 189.82 172.116 191.018 169.386C196.642 156.57 208.588 147.72 222.428 147.72C241.678 147.72 257.282 164.828 257.282 185.932V175.234C257.282 174.822 257.26 174.418 257.248 174.01C257.25 173.752 257.28 173.502 257.28 173.244V173.244Z" fill="#F06EA9"/>
<path d="M257.28 187.922V185.932C257.28 186.19 257.25 186.44 257.246 186.698C257.26 187.104 257.28 187.508 257.28 187.922V187.922Z" fill="#F06EA9"/>
<path d="M222.428 342.984C208.588 342.984 196.64 334.134 191.018 321.318C189.82 318.59 187.242 316.976 184.488 317.202C180.632 317.52 176.598 317.136 172.448 315.83C159.328 311.7 149.366 299.444 147.436 284.63C146.634 278.486 147.196 272.596 148.812 267.228C149.952 263.442 148.328 259.242 144.912 257.876C136.498 254.514 129.604 247.704 125.646 239.006C123.316 244.124 122 249.89 122 256C122 272.498 131.546 286.522 144.908 291.862C148.324 293.228 149.948 297.428 148.808 301.214C147.192 306.582 146.632 312.472 147.432 318.616C149.364 333.43 159.326 345.686 172.444 349.816C176.592 351.122 180.626 351.504 184.484 351.188C187.238 350.962 189.818 352.574 191.014 355.304C196.638 368.12 208.584 376.97 222.424 376.97C241.674 376.97 257.278 359.862 257.278 338.758C257.278 338.5 257.248 338.25 257.244 337.992C257.258 337.584 257.278 337.18 257.278 336.768V304.774C257.28 325.876 241.676 342.984 222.428 342.984V342.984Z" fill="#E43D91"/>
<path d="M257.28 304.772V302.782C257.28 303.194 257.258 303.598 257.246 304.006C257.25 304.264 257.28 304.514 257.28 304.772Z" fill="#E43D91"/>
<path d="M244.112 300.348C243.98 303.254 241.79 305.514 239.164 305.514C239.08 305.514 238.996 305.512 238.912 305.508C233.752 305.226 228.888 303.432 224.688 300.398C211.464 307.822 201.406 320.208 196.224 335.554C193.72 342.968 192.504 350.668 192.534 358.35C191.992 357.36 191.476 356.35 191.018 355.304C189.82 352.576 187.242 350.962 184.488 351.188C183.966 351.232 183.43 351.228 182.902 351.244C183.452 344.67 184.778 338.134 186.924 331.778C192.58 315.03 203.208 301.304 217.174 292.502C213.414 286.776 211.532 279.876 211.86 272.72C211.998 269.72 214.282 267.388 217.062 267.562C219.796 267.712 221.904 270.266 221.766 273.264C221.518 278.708 223.214 283.93 226.544 287.966C229.872 292.002 234.444 294.374 239.41 294.648C242.142 294.796 244.25 297.348 244.112 300.348V300.348ZM189.142 291.972C191.768 291.972 193.958 289.714 194.09 286.806C194.228 283.806 192.12 281.254 189.386 281.104C184.418 280.83 179.848 278.458 176.52 274.422C173.19 270.386 171.492 265.164 171.742 259.72C171.88 256.72 169.772 254.168 167.038 254.018C164.298 253.858 161.972 256.176 161.836 259.176C161.618 263.924 162.398 268.548 164.024 272.804C163.67 273.226 163.358 273.698 163.134 274.248C159.76 282.542 153.842 289.012 146.38 292.736C148.754 294.574 149.768 298.03 148.81 301.214C148.56 302.046 148.344 302.894 148.146 303.75C157.584 299.746 165.3 292.44 170.244 282.904C175.24 288.354 181.792 291.574 188.89 291.964C188.974 291.97 189.058 291.972 189.142 291.972V291.972ZM225.146 241.534C222.536 242.444 221.094 245.502 221.926 248.364C222.758 251.224 225.546 252.804 228.156 251.896C238.388 248.324 249.03 250.45 257.28 256.608V244.068C247.598 238.934 236.182 237.68 225.146 241.534V241.534ZM184.216 231.656C184.92 238.006 187.356 243.956 191.346 248.79C196.454 254.98 203.46 258.62 211.072 259.038C211.158 259.044 211.242 259.046 211.326 259.046C213.95 259.046 216.142 256.788 216.274 253.88C216.412 250.88 214.304 248.328 211.57 248.178C206.602 247.904 202.032 245.532 198.704 241.496C195.64 237.782 193.978 233.06 193.924 228.088C197.236 226.36 200.406 224.162 203.334 221.446C205.424 219.508 205.686 216.076 203.916 213.784C202.152 211.494 199.02 211.202 196.928 213.146C190.066 219.51 181.368 222.566 172.416 221.748C163.472 220.93 155.35 216.336 149.544 208.814C149.096 208.232 148.558 207.782 147.974 207.462C148.212 208.588 148.484 209.7 148.81 210.788C149.884 214.36 148.48 218.268 145.452 219.85C153.724 228.356 164.456 232.722 175.246 232.722C178.25 232.72 181.254 232.338 184.216 231.656V231.656ZM209.988 190.91C209.532 197.156 210.79 203.406 213.71 208.956C214.626 210.702 216.294 211.68 218.01 211.68C218.85 211.68 219.702 211.446 220.482 210.952C222.856 209.452 223.67 206.128 222.302 203.526C219.818 198.802 219.16 193.308 220.448 188.052C221.736 182.796 224.818 178.402 229.128 175.68C231.502 174.18 232.316 170.856 230.948 168.254C229.58 165.654 226.548 164.758 224.174 166.258C218.96 169.554 214.942 174.464 212.5 180.346C201.294 179.054 192.532 168.638 192.532 156.016C192.532 155.374 192.412 154.768 192.226 154.196C191.796 155.012 191.39 155.846 191.016 156.698C189.818 159.426 187.24 161.04 184.484 160.814C183.974 160.772 183.452 160.776 182.936 160.76C184.848 176.246 195.93 188.562 209.988 190.91V190.91Z" fill="#F06EA9"/>
<path d="M148.916 291.316C148.09 291.822 147.246 292.302 146.378 292.736C147.246 293.408 147.928 294.29 148.4 295.308C148.416 295.342 148.436 295.372 148.45 295.406C148.564 295.66 148.654 295.924 148.74 296.192C148.79 296.34 148.838 296.488 148.878 296.64C148.938 296.868 148.984 297.096 149.024 297.33C149.062 297.544 149.088 297.76 149.11 297.978C149.128 298.178 149.146 298.378 149.15 298.58C149.156 298.856 149.14 299.134 149.12 299.412C149.108 299.572 149.106 299.73 149.084 299.89C149.026 300.334 148.938 300.778 148.806 301.216C148.556 302.048 148.34 302.896 148.142 303.752C149.982 302.972 151.734 302.03 153.434 301.006C151.524 298.046 149.994 294.79 148.916 291.316V291.316Z" fill="#EF5A9D"/>
<path d="M196.224 335.552C196.672 334.228 197.168 332.932 197.688 331.654C195.048 328.73 192.834 325.346 191.16 321.616C189.542 324.86 188.116 328.248 186.922 331.778C184.776 338.132 183.45 344.67 182.9 351.244C183.43 351.228 183.964 351.232 184.486 351.188C187.24 350.962 189.82 352.574 191.016 355.304C191.476 356.35 191.992 357.36 192.532 358.35C192.504 350.668 193.72 342.966 196.224 335.552V335.552Z" fill="#EF5A9D"/>
<path d="M384.27 216.21H361.458V194.552H384.27C390.25 194.552 395.098 199.4 395.098 205.38C395.098 211.362 390.25 216.21 384.27 216.21V216.21Z" fill="white"/>
<path d="M384.27 205.382H361.458V216.21H384.27C390.25 216.21 395.098 211.362 395.098 205.382C395.098 203.408 394.568 201.562 393.646 199.968C391.774 203.204 388.278 205.382 384.27 205.382Z" fill="#D1D3D4"/>
<path d="M384.27 266.828H361.458V245.172H384.27C390.25 245.172 395.098 250.02 395.098 256C395.098 261.98 390.25 266.828 384.27 266.828Z" fill="white"/>
<path d="M384.27 256H361.458V266.828H384.27C390.25 266.828 395.098 261.98 395.098 256C395.098 254.026 394.568 252.18 393.646 250.586C391.774 253.822 388.278 256 384.27 256V256Z" fill="#D1D3D4"/>
<path d="M384.27 317.446H361.458V295.79H384.27C390.25 295.79 395.098 300.638 395.098 306.618C395.098 312.598 390.25 317.446 384.27 317.446V317.446Z" fill="white"/>
<path d="M384.27 306.618H361.458V317.446H384.27C390.25 317.446 395.098 312.598 395.098 306.618C395.098 304.644 394.568 302.798 393.646 301.204C391.774 304.44 388.278 306.618 384.27 306.618Z" fill="#D1D3D4"/>
<path d="M284.966 145.862V168.68H274.136V137.27C274.136 135.964 275.368 135.022 276.64 135.322C278.628 135.792 280.4 136.81 281.794 138.204C283.75 140.18 284.966 142.878 284.966 145.862V145.862Z" fill="white"/>
<path d="M335.584 145.866V168.68H313.926V145.866C313.926 139.886 318.774 135.038 324.754 135.038C330.736 135.038 335.584 139.886 335.584 145.866V145.866Z" fill="white"/>
<path d="M284.814 343.32V366.138C284.814 369.122 283.598 371.818 281.642 373.794C280.29 375.146 278.582 376.148 276.66 376.636C275.386 376.96 274.138 376.008 274.138 374.694V343.32H284.814Z" fill="white"/>
<path d="M335.584 366.134V343.322H313.926V366.134C313.926 372.114 318.774 376.962 324.754 376.962C330.736 376.962 335.584 372.114 335.584 366.134V366.134Z" fill="white"/>
<path d="M344.852 168.68H274.136V343.322H344.852C354.028 343.322 361.458 335.894 361.458 326.716V185.284C361.458 176.108 354.028 168.68 344.852 168.68Z" fill="white"/>
<path d="M339.248 182.586H274.138V329.412H339.248C343.846 329.412 347.55 325.708 347.55 321.11V190.89C347.55 186.292 343.846 182.586 339.248 182.586Z" fill="#EF5A9D"/>
<path d="M347.55 190.89V199.192C347.55 194.594 343.846 190.89 339.248 190.89H274.138V182.588H339.248C343.846 182.586 347.55 186.292 347.55 190.89Z" fill="#E43D91"/>
<path d="M302.636 288.83H274.136V239.85C275.77 239.85 277.422 240.59 278.524 242.054L280.634 244.866L295.358 264.492L306.302 279.084L307.024 280.052C309.742 283.664 307.158 288.83 302.636 288.83V288.83Z" fill="#E43D91"/>
<path d="M327.81 182.586V244.866H274.136V234.854H317.798V182.586H327.81Z" fill="#E43D91"/>
<path d="M347.55 297.988V308.002H281.376V316.626H274.136V297.988H347.55Z" fill="#E43D91"/>
<path d="M300.834 316.626H310.848V329.416H300.834V316.626Z" fill="#E43D91"/>
<path d="M305.562 182.586V218.742H274.136V208.73H295.55V182.586H305.562Z" fill="#E43D91"/>
<path d="M347.552 285.492H317.796V254.608H327.81V275.478H347.552V285.492Z" fill="#E43D91"/>
<path d="M296.176 226.384C296.176 228.822 294.2 230.798 291.762 230.798C289.324 230.798 287.348 228.822 287.348 226.384C287.348 223.946 289.324 221.97 291.762 221.97C294.198 221.968 296.176 223.946 296.176 226.384Z" fill="#E43D91"/>
<path d="M323.538 318.536C323.538 320.974 321.562 322.95 319.124 322.95C316.686 322.95 314.71 320.974 314.71 318.536C314.71 316.098 316.686 314.122 319.124 314.122C321.56 314.122 323.538 316.098 323.538 318.536Z" fill="#E43D91"/>
<path d="M306.302 279.084C305.352 279.958 304.098 280.49 302.636 280.49H274.136V231.528C275.77 231.528 277.422 232.25 278.524 233.712L279.38 234.852L286.884 244.864L301.608 264.49L307.022 271.71C308.868 274.164 308.278 277.318 306.302 279.084V279.084Z" fill="#FEDE3A"/>
<path d="M306.302 279.084C305.352 279.958 304.098 280.49 302.636 280.49H274.136V264.492H301.61L307.024 271.712C308.868 274.164 308.278 277.318 306.302 279.084V279.084Z" fill="#F7CB15"/>
<path d="M274.136 343.32H284.814V356.752H274.136V343.32Z" fill="#D1D3D4"/>
<path d="M313.776 343.322H335.432V356.752H313.776V343.322Z" fill="#D1D3D4"/>
<path d="M274.136 155.246H284.814V168.678H274.136V155.246Z" fill="#D1D3D4"/>
<path d="M313.776 155.248H335.432V168.678H313.776V155.248Z" fill="#D1D3D4"/>
<path d="M514.864 207.97H527.161V139.521H513.853V131.491H547.881L567.872 184.723L586.514 131.491H618.128V139.521H605.044V207.97H618.97V216H580.057V207.97H592.41V141.374L570.511 201.513C569.463 204.358 568.096 205.78 566.412 205.78C565.551 205.78 564.708 205.425 563.885 204.713C563.099 203.965 562.481 203.01 562.032 201.85L537.437 139.633V207.97H551.587V216H514.864V207.97ZM640.813 217.516C637.744 217.516 635.03 216.973 632.671 215.888C630.313 214.765 628.479 213.155 627.168 211.059C625.858 208.962 625.203 206.51 625.203 203.703C625.203 201.494 625.69 199.472 626.663 197.638C627.674 195.766 629.04 194.194 630.762 192.921C632.409 191.686 634.281 190.507 636.377 189.384C638.511 188.261 640.682 187.287 642.891 186.464C647.383 184.854 651.426 183.001 655.02 180.905C656.742 179.894 658.09 178.677 659.063 177.255C660.036 175.832 660.523 174.298 660.523 172.65C660.523 168.458 659.493 165.313 657.435 163.217C655.376 161.083 652.418 160.016 648.562 160.016C645.867 160.016 643.322 160.447 640.926 161.308C638.567 162.131 636.733 163.273 635.423 164.733C637.744 164.733 639.616 165.369 641.038 166.642C642.498 167.877 643.228 169.412 643.228 171.247C643.228 172.781 642.872 174.167 642.161 175.402C641.487 176.6 640.551 177.536 639.354 178.209C638.156 178.883 636.845 179.22 635.423 179.22C633.102 179.22 631.137 178.415 629.527 176.806C627.955 175.196 627.168 172.969 627.168 170.124C627.168 168.589 627.674 166.942 628.685 165.182C629.695 163.385 631.118 161.645 632.952 159.96C634.861 158.201 637.407 156.797 640.589 155.749C643.808 154.663 647.271 154.12 650.977 154.12C654.084 154.12 656.892 154.476 659.4 155.187C661.908 155.861 664.173 156.946 666.194 158.444C668.253 159.979 669.826 162.094 670.911 164.789C672.034 167.484 672.596 170.648 672.596 174.279V200.109C672.596 201.719 672.783 203.179 673.157 204.489C673.569 205.762 674.262 206.903 675.235 207.914C676.32 209 677.649 209.542 679.222 209.542C683.976 209.542 686.353 206.211 686.353 199.547V191.181H692.474V198.424C692.474 202.13 692.081 205.294 691.294 207.914C690.508 210.497 689.367 212.462 687.869 213.81C686.409 215.12 684.799 216.056 683.04 216.618C681.281 217.217 679.203 217.516 676.807 217.516C674.224 217.516 671.847 217.011 669.676 216C667.542 214.989 665.726 213.436 664.229 211.339C662.619 209.131 661.683 206.51 661.421 203.478C660.373 206.173 658.782 208.588 656.648 210.722C654.552 212.855 652.119 214.521 649.349 215.719C646.578 216.917 643.733 217.516 640.813 217.516ZM643.733 209.43C646.167 209.43 648.712 208.7 651.37 207.24C654.028 205.78 656.218 203.909 657.94 201.625C659.662 199.416 660.523 197.264 660.523 195.167V183.207C658.389 185.341 655.806 187.344 652.774 189.215C649.779 191.087 647.046 192.584 644.576 193.708C642.367 194.681 640.57 195.972 639.185 197.582C637.837 199.154 637.164 201.007 637.164 203.141C637.164 205.05 637.725 206.585 638.848 207.746C640.009 208.869 641.637 209.43 643.733 209.43ZM725.267 217.516C721.299 217.516 717.518 216.805 713.924 215.382C710.368 213.96 707.279 211.938 704.659 209.318C702.001 206.697 699.923 203.459 698.426 199.604C696.928 195.71 696.18 191.518 696.18 187.025C696.18 182.683 696.835 178.565 698.145 174.672C699.455 170.779 701.346 167.278 703.816 164.171C706.325 161.027 709.544 158.575 713.475 156.815C717.443 155.019 721.823 154.12 726.614 154.12C729.347 154.12 732.08 154.532 734.812 155.355C737.583 156.142 740.128 157.302 742.449 158.837C744.882 160.447 746.81 162.562 748.233 165.182C749.693 167.765 750.423 170.629 750.423 173.773C750.423 175.308 750.067 176.787 749.356 178.209C748.645 179.595 747.615 180.718 746.268 181.579C744.92 182.44 743.366 182.87 741.607 182.87C739.136 182.87 737.077 182.14 735.43 180.68C733.783 179.22 732.959 177.311 732.959 174.953C732.959 172.594 733.783 170.722 735.43 169.337C737.115 167.952 739.174 167.26 741.607 167.26C740.334 165.201 738.556 163.554 736.272 162.318C733.989 161.083 731.425 160.465 728.58 160.465C725.398 160.465 722.496 161.177 719.876 162.599C717.293 163.984 715.215 165.893 713.643 168.327C712.108 170.685 710.929 173.324 710.105 176.244C709.319 179.127 708.926 182.103 708.926 185.172C708.926 189.964 709.675 194.101 711.172 197.582C712.67 201.063 714.822 203.74 717.63 205.612C720.475 207.484 723.863 208.419 727.793 208.419C730.002 208.419 732.155 207.97 734.251 207.072C736.385 206.136 738.219 204.919 739.754 203.422C741.176 201.999 742.374 200.577 743.348 199.154C744.321 197.694 744.995 196.365 745.369 195.167L751.714 197.245C750.741 201.363 749.056 204.938 746.661 207.97C744.265 211.002 741.251 213.361 737.62 215.045C733.989 216.693 729.871 217.516 725.267 217.516ZM757.33 209.711H767.662V138.397H756.656V131.491H779.734V166.417C781.119 163.61 782.954 161.233 785.237 159.286C787.521 157.34 789.898 155.973 792.369 155.187C794.615 154.476 796.973 154.12 799.444 154.12C801.241 154.12 802.813 154.251 804.161 154.513C805.546 154.775 807.081 155.299 808.765 156.085C810.674 157.021 812.247 158.219 813.482 159.679C814.755 161.139 815.822 163.179 816.683 165.8C817.581 168.533 818.03 171.733 818.03 175.402V209.711H830.103V216H795.064V209.711H805.958V174.953C805.958 170.722 805.153 167.522 803.543 165.351C801.971 163.142 799.799 162.038 797.029 162.038C795.158 162.038 793.192 162.562 791.133 163.61C789.112 164.658 787.24 166.081 785.518 167.877C783.759 169.749 782.355 171.977 781.307 174.56C780.258 177.105 779.734 179.726 779.734 182.421V209.711H790.684V216H757.33V209.711ZM849.812 145.136C848.315 145.136 846.93 144.761 845.657 144.013C844.384 143.264 843.374 142.253 842.625 140.98C841.876 139.708 841.502 138.341 841.502 136.881C841.502 135.347 841.876 133.943 842.625 132.67C843.374 131.36 844.384 130.33 845.657 129.582C846.93 128.833 848.315 128.458 849.812 128.458C851.272 128.458 852.639 128.852 853.912 129.638C855.222 130.386 856.251 131.416 857 132.726C857.786 133.999 858.179 135.384 858.179 136.881C858.179 138.341 857.786 139.708 857 140.98C856.251 142.253 855.222 143.264 853.912 144.013C852.639 144.761 851.272 145.136 849.812 145.136ZM834.034 216V209.711H844.871V162.038H833.921V155.749H856.944V209.711H867.95V216H834.034ZM871.094 209.711H882.044V162.038H871.094V155.749L892.376 154.794L893.78 167.035C894.94 164.34 896.587 162.019 898.721 160.072C900.855 158.126 903.232 156.647 905.853 155.636C908.473 154.625 911.112 154.12 913.77 154.12C915.043 154.12 916.166 154.176 917.139 154.289C918.15 154.401 919.254 154.644 920.452 155.019C921.8 155.43 922.979 155.954 923.99 156.591C925.038 157.227 926.105 158.088 927.19 159.174C928.313 160.334 929.231 161.663 929.942 163.161C930.653 164.621 931.252 166.436 931.739 168.607C932.188 170.779 932.413 173.231 932.413 175.963V209.711H943.924V216H910.064V209.711H920.34V176.076C920.34 171.321 919.404 167.765 917.532 165.407C915.66 163.011 913.021 161.813 909.615 161.813C907.518 161.813 905.572 162.206 903.775 162.992C902.015 163.778 900.537 164.864 899.339 166.249C898.178 167.597 897.186 169.206 896.363 171.078C895.577 172.912 895.015 174.84 894.678 176.862C894.304 178.734 894.117 180.811 894.117 183.095V209.711H904.336V216H871.094V209.711ZM975.369 217.516C970.877 217.516 966.74 216.674 962.959 214.989C959.179 213.267 956.053 210.909 953.582 207.914C951.149 204.994 949.277 201.7 947.967 198.031C946.694 194.363 946.058 190.563 946.058 186.632C946.058 183.226 946.451 179.931 947.237 176.75C948.06 173.568 949.258 170.629 950.831 167.934C954.275 162.056 958.879 158.032 964.644 155.861C967.676 154.7 971.027 154.12 974.695 154.12C978.514 154.12 982.07 154.794 985.364 156.142C988.659 157.489 991.541 159.436 994.012 161.981C996.52 164.602 998.485 167.896 999.908 171.864C1001.37 175.832 1002.14 180.231 1002.21 185.06H958.917V185.509C958.917 192.023 960.302 197.507 963.072 201.962C964.457 204.208 966.31 205.967 968.631 207.24C970.952 208.476 973.591 209.093 976.548 209.093C979.169 209.093 981.696 208.55 984.129 207.465C986.6 206.342 988.733 204.732 990.53 202.636C992.365 200.502 993.675 198.013 994.461 195.167L1001.03 197.245C1000.06 201.363 998.392 204.957 996.033 208.026C993.675 211.059 990.736 213.398 987.217 215.045C983.698 216.693 979.749 217.516 975.369 217.516ZM989.856 178.996C989.782 175.439 989.07 172.295 987.723 169.562C986.412 166.792 984.634 164.639 982.388 163.104C980.18 161.57 977.728 160.802 975.032 160.802C972.299 160.802 969.791 161.57 967.508 163.104C965.224 164.639 963.353 166.792 961.893 169.562C960.47 172.295 959.609 175.439 959.31 178.996H989.856Z" fill="#382B73"/>
<path d="M513.853 373V364.97H527.498V296.521H513.853V288.491H553.609V296.521H540.75V364.97H572.476V337.905H582.977V373H513.853ZM617.903 374.516C613.411 374.516 609.275 373.674 605.494 371.989C601.713 370.267 598.587 367.909 596.116 364.914C593.683 361.994 591.811 358.7 590.501 355.031C589.228 351.363 588.592 347.563 588.592 343.632C588.592 340.226 588.985 336.931 589.771 333.75C590.595 330.568 591.792 327.629 593.365 324.934C596.809 319.056 601.413 315.032 607.178 312.861C610.21 311.7 613.561 311.12 617.229 311.12C621.048 311.12 624.604 311.794 627.898 313.142C631.193 314.489 634.075 316.436 636.546 318.981C639.054 321.602 641.019 324.896 642.442 328.864C643.902 332.832 644.669 337.231 644.744 342.06H601.451V342.509C601.451 349.023 602.836 354.507 605.606 358.962C606.991 361.208 608.844 362.967 611.165 364.24C613.486 365.476 616.125 366.093 619.083 366.093C621.703 366.093 624.23 365.55 626.663 364.465C629.134 363.342 631.268 361.732 633.064 359.636C634.899 357.502 636.209 355.013 636.995 352.167L643.565 354.245C642.592 358.363 640.926 361.957 638.567 365.026C636.209 368.059 633.27 370.398 629.751 372.045C626.233 373.693 622.283 374.516 617.903 374.516ZM632.391 335.996C632.316 332.439 631.604 329.295 630.257 326.562C628.947 323.792 627.168 321.639 624.922 320.104C622.714 318.57 620.262 317.802 617.566 317.802C614.834 317.802 612.326 318.57 610.042 320.104C607.758 321.639 605.887 323.792 604.427 326.562C603.004 329.295 602.143 332.439 601.844 335.996H632.391ZM666.868 374.516C663.799 374.516 661.084 373.973 658.726 372.888C656.368 371.765 654.533 370.155 653.223 368.059C651.913 365.962 651.258 363.51 651.258 360.703C651.258 358.494 651.744 356.472 652.718 354.638C653.729 352.766 655.095 351.194 656.817 349.921C658.464 348.686 660.336 347.507 662.432 346.384C664.566 345.261 666.737 344.287 668.946 343.464C673.438 341.854 677.481 340.001 681.075 337.905C682.797 336.894 684.144 335.677 685.118 334.255C686.091 332.832 686.578 331.298 686.578 329.65C686.578 325.458 685.548 322.313 683.489 320.217C681.43 318.083 678.473 317.016 674.617 317.016C671.922 317.016 669.376 317.447 666.98 318.308C664.622 319.131 662.788 320.273 661.478 321.733C663.799 321.733 665.67 322.369 667.093 323.642C668.553 324.877 669.283 326.412 669.283 328.247C669.283 329.781 668.927 331.167 668.216 332.402C667.542 333.6 666.606 334.536 665.408 335.209C664.21 335.883 662.9 336.22 661.478 336.22C659.157 336.22 657.191 335.415 655.582 333.806C654.009 332.196 653.223 329.969 653.223 327.124C653.223 325.589 653.729 323.942 654.739 322.182C655.75 320.385 657.173 318.645 659.007 316.96C660.916 315.201 663.462 313.797 666.644 312.749C669.863 311.663 673.326 311.12 677.032 311.12C680.139 311.12 682.946 311.476 685.455 312.187C687.963 312.861 690.228 313.946 692.249 315.444C694.308 316.979 695.88 319.094 696.966 321.789C698.089 324.484 698.65 327.648 698.65 331.279V357.109C698.65 358.719 698.838 360.179 699.212 361.489C699.624 362.762 700.316 363.903 701.29 364.914C702.375 366 703.704 366.542 705.276 366.542C710.031 366.542 712.408 363.211 712.408 356.547V348.181H718.528V355.424C718.528 359.13 718.135 362.294 717.349 364.914C716.563 367.497 715.421 369.462 713.924 370.81C712.464 372.12 710.854 373.056 709.095 373.618C707.335 374.217 705.258 374.516 702.862 374.516C700.279 374.516 697.902 374.011 695.73 373C693.597 371.989 691.781 370.436 690.284 368.339C688.674 366.131 687.738 363.51 687.476 360.478C686.428 363.173 684.837 365.588 682.703 367.722C680.607 369.855 678.174 371.521 675.403 372.719C672.633 373.917 669.788 374.516 666.868 374.516ZM669.788 366.43C672.221 366.43 674.767 365.7 677.425 364.24C680.083 362.78 682.273 360.909 683.995 358.625C685.717 356.416 686.578 354.264 686.578 352.167V340.207C684.444 342.341 681.861 344.344 678.829 346.215C675.834 348.087 673.101 349.584 670.63 350.708C668.422 351.681 666.625 352.972 665.24 354.582C663.892 356.154 663.218 358.007 663.218 360.141C663.218 362.05 663.78 363.585 664.903 364.746C666.063 365.869 667.692 366.43 669.788 366.43ZM720.831 366.711H731.78V319.038H720.831V312.749L742.112 311.794L743.628 324.934C744.564 321.752 746.268 318.757 748.738 315.949C750.049 314.452 751.658 313.273 753.567 312.412C755.514 311.551 757.592 311.12 759.8 311.12C761.859 311.12 763.731 311.513 765.416 312.299C767.1 313.048 768.429 314.152 769.402 315.612C770.413 317.072 770.918 318.794 770.918 320.778C770.918 322.65 770.525 324.297 769.739 325.72C768.991 327.105 767.961 328.172 766.651 328.92C765.341 329.632 763.899 329.987 762.327 329.987C760.118 329.987 758.228 329.295 756.656 327.91C755.121 326.525 754.354 324.728 754.354 322.519C754.354 321.808 754.522 321.04 754.859 320.217C755.233 319.393 755.626 318.719 756.038 318.195L756.656 317.578C754.447 317.578 752.482 318.27 750.76 319.655C749.038 321.003 747.69 322.875 746.717 325.271C744.808 329.912 743.853 335.06 743.853 340.712V366.711H756.487V373H720.831V366.711ZM774.4 366.711H785.35V319.038H774.4V312.749L795.682 311.794L797.085 324.035C798.246 321.34 799.893 319.019 802.027 317.072C804.161 315.126 806.538 313.647 809.158 312.636C811.779 311.625 814.418 311.12 817.076 311.12C818.348 311.12 819.472 311.176 820.445 311.289C821.456 311.401 822.56 311.644 823.758 312.019C825.105 312.43 826.285 312.954 827.295 313.591C828.344 314.227 829.41 315.088 830.496 316.174C831.619 317.334 832.536 318.663 833.248 320.161C833.959 321.621 834.558 323.436 835.044 325.607C835.494 327.779 835.718 330.231 835.718 332.963V366.711H847.229V373H813.37V366.711H823.646V333.076C823.646 328.321 822.71 324.765 820.838 322.407C818.966 320.011 816.327 318.813 812.92 318.813C810.824 318.813 808.877 319.206 807.081 319.992C805.321 320.778 803.842 321.864 802.645 323.249C801.484 324.597 800.492 326.206 799.668 328.078C798.882 329.912 798.321 331.84 797.984 333.862C797.61 335.734 797.422 337.811 797.422 340.095V366.711H807.642V373H774.4V366.711ZM866.883 302.136C865.385 302.136 864 301.761 862.728 301.013C861.455 300.264 860.444 299.253 859.695 297.98C858.947 296.708 858.572 295.341 858.572 293.881C858.572 292.347 858.947 290.943 859.695 289.67C860.444 288.36 861.455 287.33 862.728 286.582C864 285.833 865.385 285.458 866.883 285.458C868.343 285.458 869.709 285.852 870.982 286.638C872.292 287.386 873.322 288.416 874.07 289.726C874.856 290.999 875.25 292.384 875.25 293.881C875.25 295.341 874.856 296.708 874.07 297.98C873.322 299.253 872.292 300.264 870.982 301.013C869.709 301.761 868.343 302.136 866.883 302.136ZM851.104 373V366.711H861.941V319.038H850.992V312.749H874.014V366.711H885.02V373H851.104ZM888.165 366.711H899.114V319.038H888.165V312.749L909.446 311.794L910.85 324.035C912.011 321.34 913.658 319.019 915.792 317.072C917.925 315.126 920.302 313.647 922.923 312.636C925.543 311.625 928.182 311.12 930.84 311.12C932.113 311.12 933.236 311.176 934.209 311.289C935.22 311.401 936.325 311.644 937.522 312.019C938.87 312.43 940.049 312.954 941.06 313.591C942.108 314.227 943.175 315.088 944.261 316.174C945.384 317.334 946.301 318.663 947.012 320.161C947.723 321.621 948.322 323.436 948.809 325.607C949.258 327.779 949.483 330.231 949.483 332.963V366.711H960.994V373H927.134V366.711H937.41V333.076C937.41 328.321 936.474 324.765 934.603 322.407C932.731 320.011 930.092 318.813 926.685 318.813C924.589 318.813 922.642 319.206 920.845 319.992C919.086 320.778 917.607 321.864 916.409 323.249C915.249 324.597 914.257 326.206 913.433 328.078C912.647 329.912 912.085 331.84 911.749 333.862C911.374 335.734 911.187 337.811 911.187 340.095V366.711H921.407V373H888.165V366.711ZM990.586 403.042C982.5 403.042 976.53 401.095 972.674 397.202C970.577 395.105 969.529 392.56 969.529 389.565C969.529 386.795 970.409 384.642 972.168 383.107C973.965 381.573 976.23 380.805 978.963 380.805C980.348 380.805 981.621 381.142 982.781 381.816C983.942 382.49 984.859 383.426 985.533 384.624C986.207 385.821 986.543 387.169 986.543 388.667C986.543 390.089 986.038 391.53 985.027 392.99C984.054 394.488 982.987 395.461 981.827 395.91C984.185 396.734 986.487 397.146 988.733 397.146C994.498 397.146 998.841 394.937 1001.76 390.52C1004.72 386.102 1006.2 379.832 1006.2 371.708V361.713C1005.37 364.109 1004.08 366.28 1002.32 368.227C1000.6 370.174 998.541 371.708 996.146 372.832C993.787 373.955 991.279 374.516 988.621 374.516C985.514 374.516 982.613 373.955 979.917 372.832C977.222 371.671 974.92 370.061 973.011 368.002C971.102 366.018 969.473 363.697 968.125 361.04C966.815 358.382 965.842 355.518 965.206 352.448C964.569 349.341 964.251 346.234 964.251 343.127C964.251 339.047 964.775 335.135 965.823 331.391C966.871 327.61 968.406 324.204 970.428 321.171C972.487 318.064 975.126 315.612 978.345 313.815C981.565 312.019 985.102 311.12 988.958 311.12C991.242 311.12 993.562 311.644 995.921 312.692C998.317 313.703 1000.43 315.144 1002.27 317.016C1004.1 318.888 1005.41 321.059 1006.2 323.53L1007.6 312.749H1026.36V319.431H1018.27V370.136C1018.27 377.436 1016.96 383.725 1014.34 389.003C1012.88 391.923 1011.08 394.394 1008.95 396.416C1006.85 398.437 1004.27 400.028 1001.2 401.188C997.98 402.424 994.442 403.042 990.586 403.042ZM991.036 367.385C994.255 367.385 997.081 366.262 999.515 364.016C1001.99 361.77 1003.8 358.868 1004.96 355.312C1006.05 351.831 1006.59 348.143 1006.59 344.25C1006.59 339.196 1005.95 334.742 1004.68 330.886C1003.41 326.993 1001.61 323.979 999.29 321.845C996.969 319.674 994.292 318.588 991.26 318.588C988.303 318.588 985.664 319.711 983.343 321.958C981.022 324.166 979.3 327.067 978.177 330.661C977.091 334.217 976.548 338.017 976.548 342.06C976.548 348.723 977.597 354.451 979.693 359.243C980.816 361.788 982.351 363.791 984.297 365.251C986.244 366.674 988.49 367.385 991.036 367.385Z" fill="#E43D91"/>
</svg>
