<svg width="512" height="512" viewBox="0 0 512 512" fill="none" xmlns="http://www.w3.org/2000/svg">
<path d="M310.217 93.67C314.714 93.67 319.049 94.993 322.755 97.496C326.189 99.814 330.852 98.912 333.171 95.479C335.491 92.045 334.587 87.382 331.154 85.063C324.959 80.878 317.718 78.665 310.217 78.665C289.574 78.665 272.779 95.46 272.779 116.103C272.779 136.746 289.574 153.542 310.217 153.542C318.468 153.542 325.875 150.829 331.637 145.698C332.768 144.691 333.84 143.584 334.826 142.409C337.488 139.233 337.071 134.501 333.896 131.839C330.721 129.176 325.988 129.594 323.327 132.769C322.808 133.388 322.246 133.969 321.657 134.493C318.644 137.176 314.795 138.537 310.217 138.537C297.847 138.537 287.783 128.473 287.783 116.103C287.783 103.734 297.847 93.67 310.217 93.67V93.67Z" fill="white"/>
<path d="M384.903 153.541H384.963C388.728 153.516 392.073 151.104 393.302 147.488L412.851 88.642C414.157 84.71 412.028 80.464 408.096 79.157C404.163 77.849 399.917 79.979 398.611 83.911L384.775 125.56L370.247 83.707C368.888 79.792 364.613 77.719 360.699 79.08C356.785 80.439 354.713 84.713 356.072 88.627L376.56 147.65C377.814 151.181 381.162 153.541 384.903 153.541V153.541Z" fill="white"/>
<path d="M410.919 243.935H270.214C266.071 243.935 262.712 247.294 262.712 251.437C262.712 255.58 266.071 258.939 270.214 258.939H410.919C415.062 258.939 418.421 255.58 418.421 251.437C418.421 247.294 415.063 243.935 410.919 243.935Z" fill="white"/>
<path d="M270.214 304.959H340.567C344.71 304.959 348.069 301.601 348.069 297.457C348.069 293.313 344.71 289.955 340.567 289.955H270.214C266.071 289.955 262.712 293.313 262.712 297.457C262.712 301.601 266.071 304.959 270.214 304.959Z" fill="white"/>
<path d="M410.919 335.974H270.214C266.071 335.974 262.712 339.332 262.712 343.476C262.712 347.62 266.071 350.978 270.214 350.978H410.919C415.062 350.978 418.421 347.619 418.421 343.476C418.421 339.333 415.063 335.974 410.919 335.974Z" fill="white"/>
<path d="M418.422 389.496C418.422 385.352 415.063 381.994 410.92 381.994H270.214C266.071 381.994 262.712 385.352 262.712 389.496C262.712 393.64 266.071 396.998 270.214 396.998H410.919C415.063 396.999 418.422 393.64 418.422 389.496V389.496Z" fill="white"/>
<path d="M270.214 429.242C266.071 429.242 262.712 432.6 262.712 436.744C262.712 440.888 266.071 444.246 270.214 444.246H340.567C344.71 444.246 348.069 440.887 348.069 436.744C348.069 432.601 344.71 429.242 340.567 429.242H270.214Z" fill="white"/>
<path d="M410.919 197.915H270.214C266.071 197.915 262.712 201.274 262.712 205.417C262.712 209.56 266.071 212.919 270.214 212.919H410.919C415.062 212.919 418.421 209.56 418.421 205.417C418.421 201.274 415.063 197.915 410.919 197.915Z" fill="white"/>
<path d="M450.916 105.271C455.059 105.271 458.418 101.912 458.418 97.769V28.711C458.419 12.88 445.539 0 429.707 0H82.293C66.461 0 53.581 12.88 53.581 28.711V483.288C53.581 499.119 66.461 511.999 82.293 511.999H429.706C445.538 511.999 458.418 499.119 458.418 483.288V132.843C458.418 128.699 455.059 125.341 450.916 125.341C446.773 125.341 443.414 128.7 443.414 132.843V483.289C443.414 490.847 437.265 496.996 429.707 496.996H238.494V15.005H429.706C437.264 15.005 443.413 21.153 443.413 28.712V97.77C443.414 101.913 446.773 105.271 450.916 105.271V105.271ZM223.489 496.995H82.293C74.735 496.995 68.586 490.847 68.586 483.288V28.711C68.586 21.153 74.735 15.004 82.293 15.004H223.489V496.995Z" fill="white"/>
<path d="M146.133 175.586C178.83 175.586 205.616 148.963 205.616 116.103C205.616 83.304 178.932 56.62 146.133 56.62C113.334 56.62 86.65 83.304 86.65 116.103C86.65 148.923 113.396 175.586 146.133 175.586ZM146.133 160.581C136.413 160.581 127.419 157.438 120.093 152.128C123.216 145.806 128.614 140.732 135.152 138.037C138.488 139.606 142.209 140.488 146.133 140.488C150.057 140.488 153.778 139.606 157.114 138.037C163.652 140.732 169.05 145.806 172.173 152.128C164.848 157.439 155.853 160.581 146.133 160.581ZM135.243 114.593C135.243 108.587 140.128 103.702 146.134 103.702C152.139 103.702 157.025 108.587 157.025 114.593C157.025 120.598 152.14 125.483 146.134 125.483C140.128 125.483 135.243 120.598 135.243 114.593ZM146.133 71.625C170.659 71.625 190.611 91.578 190.611 116.103C190.611 125.274 187.82 133.805 183.044 140.893C179.405 135.275 174.545 130.56 168.788 127.119C170.85 123.404 172.029 119.134 172.029 114.593C172.029 100.314 160.412 88.697 146.133 88.697C131.854 88.697 120.237 100.314 120.237 114.593C120.237 119.135 121.416 123.404 123.478 127.119C117.72 130.56 112.86 135.275 109.222 140.893C104.446 133.805 101.655 125.274 101.655 116.103C101.655 91.578 121.608 71.625 146.133 71.625V71.625Z" fill="white"/>
<path d="M102.663 285.222H189.603C198.538 285.222 205.807 277.953 205.807 269.019V247.584C205.807 238.649 198.538 231.381 189.603 231.381H102.663C93.728 231.381 86.459 238.65 86.459 247.584V269.019C86.459 277.953 93.728 285.222 102.663 285.222V285.222ZM101.464 247.584C101.464 246.923 102.002 246.385 102.663 246.385H189.603C190.264 246.385 190.802 246.922 190.802 247.584V269.019C190.802 269.68 190.264 270.218 189.603 270.218H102.663C102.002 270.218 101.464 269.681 101.464 269.019V247.584Z" fill="white"/>
<path d="M102.663 364.734H110.233C114.376 364.734 117.735 361.376 117.735 357.232C117.735 353.088 114.376 349.73 110.233 349.73H102.663C102.002 349.73 101.464 349.193 101.464 348.531V327.096C101.464 326.435 102.002 325.897 102.663 325.897H189.603C190.264 325.897 190.802 326.434 190.802 327.096V348.531C190.802 349.192 190.264 349.73 189.603 349.73H145.306C141.163 349.73 137.804 353.089 137.804 357.232C137.804 361.375 141.163 364.734 145.306 364.734H189.603C198.538 364.734 205.807 357.465 205.807 348.531V327.096C205.807 318.161 198.538 310.893 189.603 310.893H102.663C93.728 310.893 86.459 318.162 86.459 327.096V348.531C86.459 357.466 93.728 364.734 102.663 364.734V364.734Z" fill="white"/>
<path d="M102.663 444.247H189.603C198.538 444.247 205.807 436.978 205.807 428.044V406.609C205.807 397.674 198.538 390.406 189.603 390.406H102.663C93.728 390.406 86.459 397.675 86.459 406.609V428.044C86.459 436.978 93.728 444.247 102.663 444.247V444.247ZM101.464 406.608C101.464 405.947 102.002 405.409 102.663 405.409H189.603C190.264 405.409 190.802 405.946 190.802 406.608V428.043C190.802 428.704 190.264 429.242 189.603 429.242H102.663C102.002 429.242 101.464 428.705 101.464 428.043V406.608Z" fill="white"/>
</svg>
