<?xml version="1.0"?>
<svg xmlns="http://www.w3.org/2000/svg" xmlns:xlink="http://www.w3.org/1999/xlink" xmlns:svgjs="http://svgjs.com/svgjs" version="1.1" width="512" height="512" x="0" y="0" viewBox="0 0 448 448" style="enable-background:new 0 0 512 512" xml:space="preserve" class=""><g><path xmlns="http://www.w3.org/2000/svg" d="m245.65625 42.34375 10.34375 10.34375v-52.6875h-32v52.6875l10.34375-10.34375c3.125-3.121094 8.1875-3.121094 11.3125 0zm0 0" fill="#ffffff" data-original="#000000" style="" class=""/><path xmlns="http://www.w3.org/2000/svg" d="m0 376c0 13.253906 10.746094 24 24 24h181.601562l15.8125-21.097656c-4.066406-7.199219-7.25-14.867188-9.484374-22.832032l-29.042969-4.148437c-3.949219-.554687-6.886719-3.933594-6.886719-7.921875v-32c0-3.980469 2.925781-7.355469 6.863281-7.921875l29.039063-4.148437c2.238281-7.964844 5.421875-15.632813 9.488281-22.832032l-17.597656-23.496094c-2.386719-3.183593-2.074219-7.632812.734375-10.449218l22.632812-22.632813c2.816406-2.808593 7.265625-3.121093 10.449219-.734375l23.496094 17.597656c7.199219-4.066406 14.867187-7.25 22.832031-9.488281l4.152344-29.039062c.566406-3.933594 3.9375-6.851563 7.910156-6.855469h8v-168c0-13.253906-10.746094-24-24-24h-8v72c0 3.234375-1.949219 6.152344-4.9375 7.390625-.96875.40625-2.011719.613281-3.0625.609375-2.121094 0-4.15625-.84375-5.65625-2.34375l-18.34375-18.34375-18.34375 18.34375c-2.289062 2.285156-5.730469 2.972656-8.71875 1.734375s-4.9375-4.15625-4.9375-7.390625v-72h-184c-13.253906 0-24 10.746094-24 24zm256-184h-32v-16h32zm-176-160h80v16h-80zm-48 0h32v16h-32zm0 32h128v16h-128zm0 64h224v16h-224zm0 48h176v16h-176zm0 48h160v16h-160zm0 64h64v16h-64zm0 32h64v16h-64zm0 0" fill="#ffffff" data-original="#000000" style="" class=""/><path xmlns="http://www.w3.org/2000/svg" d="m360 328c0 26.507812-21.492188 48-48 48s-48-21.492188-48-48 21.492188-48 48-48 48 21.492188 48 48zm0 0" fill="#ffffff" data-original="#000000" style="" class=""/><path xmlns="http://www.w3.org/2000/svg" d="m255.800781 402.585938c2.660157-1.992188 6.273438-2.132813 9.078125-.355469 8.570313 5.472656 18.03125 9.398437 27.953125 11.601562 3.25.722657 5.714844 3.382813 6.183594 6.679688l3.921875 27.488281h18.125l3.921875-27.488281c.46875-3.296875 2.933594-5.957031 6.183594-6.679688 9.921875-2.203125 19.382812-6.128906 27.953125-11.601562 2.804687-1.777344 6.417968-1.636719 9.078125.355469l22.25 16.671874 12.796875-12.800781-16.671875-22.25c-1.988281-2.660156-2.128907-6.273437-.351563-9.078125 5.472656-8.570312 9.398438-18.03125 11.601563-27.953125.722656-3.25 3.382812-5.714843 6.679687-6.183593l27.496094-3.929688v-18.125l-27.488281-3.921875c-3.296875-.46875-5.957031-2.933594-6.679688-6.183594-2.203125-9.921875-6.128906-19.382812-11.601562-27.953125-1.777344-2.804687-1.636719-6.417968.355469-9.078125l16.671874-22.25-12.800781-12.796875-22.25 16.671875c-2.660156 1.988281-6.273437 2.128907-9.078125.351563-8.570312-5.472656-18.03125-9.398438-27.953125-11.601563-3.25-.722656-5.714843-3.382812-6.183593-6.679687l-3.929688-27.496094h-18.125l-3.921875 27.488281c-.46875 3.296875-2.933594 5.957031-6.183594 6.679688-9.921875 2.203125-19.382812 6.128906-27.953125 11.601562-2.804687 1.777344-6.417968 1.636719-9.078125-.355469l-22.25-16.671874-12.796875 12.800781 16.671875 22.25c1.988281 2.660156 2.128907 6.273437.351563 9.078125-5.472656 8.570312-9.398438 18.03125-11.601563 27.953125-.722656 3.25-3.382812 5.714843-6.679687 6.183593l-27.496094 3.929688v18.125l27.488281 3.921875c3.296875.46875 5.957031 2.933594 6.679688 6.183594 2.203125 9.921875 6.128906 19.382812 11.601562 27.953125 1.777344 2.804687 1.636719 6.417968-.355469 9.078125l-16.671874 22.25 12.800781 12.796875zm56.199219-138.585938c35.347656 0 64 28.652344 64 64s-28.652344 64-64 64-64-28.652344-64-64c.039062-35.328125 28.671875-63.960938 64-64zm0 0" fill="#ffffff" data-original="#000000" style="" class=""/></g></svg>
